<svg xmlns="http://www.w3.org/2000/svg" aria-hidden="true" style="position:absolute;width:0;height:0;overflow:hidden">
  <defs>
    <symbol id="icon-attention" viewBox="0 0 25 32">
      <path fill="none" stroke="#fe6401" stroke-linecap="round" stroke-linejoin="round" stroke-width="2.051" d="m22.287 27.077-8.205-14.359a2.049 2.049 0 0 0-2.818-.761 2.049 2.049 0 0 0-.752.761L2.307 27.077a2.048 2.048 0 0 0 .762 2.809c.314.179.67.271 1.032.268h16.41a2.054 2.054 0 0 0 2.049-2.052c0-.36-.095-.713-.275-1.025zM12.308 17.846v4.103M12.308 26.051h.01" style="stroke:var(--color1, #fe6401)"/>
    </symbol>
    <symbol id="icon-bulb" viewBox="0 0 32 32">
      <path fill="none" stroke="#fe6401" stroke-linecap="round" stroke-linejoin="round" stroke-width="2.667" d="M20 18.667c.267-1.333.933-2.267 2-3.333 1.333-1.2 2-2.933 2-4.667a8 8 0 1 0-16 0c0 1.333.267 2.933 2 4.667.933.933 1.733 2 2 3.333M12 24h8M13.333 29.333h5.333" style="stroke:var(--color1, #fe6401)"/>
    </symbol>
    <symbol id="icon-chart" viewBox="0 0 32 32">
      <path fill="none" stroke="#f06e42" stroke-linecap="round" stroke-linejoin="round" stroke-width="2.667" d="M29.333 9.333 18 20.666l-6.667-6.667-8.667 8.667" style="stroke:var(--color2, #f06e42)"/>
      <path fill="none" stroke="#f06e42" stroke-linecap="round" stroke-linejoin="round" stroke-width="2.667" d="M21.333 9.333h8v8" style="stroke:var(--color2, #f06e42)"/>
    </symbol>
    <symbol id="icon-close" viewBox="0 0 32 32">
      <path fill="#fe6401" d="M.176 27.77 27.946 0l3.086 3.086-27.77 27.77L.176 27.77z" style="fill:var(--color1, #fe6401)"/>
      <path fill="#fe6401" d="m3.086.134 27.77 27.77-3.086 3.086L0 3.22 3.086.134z" style="fill:var(--color1, #fe6401)"/>
    </symbol>
    <symbol id="icon-fan" viewBox="0 0 32 32">
      <path fill="none" stroke="#fe6401" stroke-linecap="round" stroke-linejoin="round" stroke-width="2.667" d="M14.436 21.839a8.105 8.105 0 0 1-8.771-.944 8.113 8.113 0 0 1-2.72-8.392l7.216 1.933a8.105 8.105 0 0 1 .944-8.771 8.113 8.113 0 0 1 8.392-2.72l-1.933 7.216a8.105 8.105 0 0 1 8.771.944 8.113 8.113 0 0 1 2.72 8.392l-7.216-1.933a8.105 8.105 0 0 1-.944 8.771 8.113 8.113 0 0 1-8.392 2.72l1.933-7.216zM16 16v.013" style="stroke:var(--color1, #fe6401)"/>
    </symbol>
    <symbol id="icon-key" viewBox="0 0 32 32">
      <path fill="none" stroke="#f06e42" stroke-linecap="round" stroke-linejoin="round" stroke-width="2.667" d="m20.667 10 3.067 3.067a1.333 1.333 0 0 0 1.866 0l2.8-2.8a1.333 1.333 0 0 0 0-1.866l-3.067-3.067M28 2.667l-12.8 12.8M10 28a7.333 7.333 0 1 0 0-14.666A7.333 7.333 0 0 0 10 28z" style="stroke:var(--color2, #f06e42)"/>
    </symbol>
    <symbol id="icon-lightning" viewBox="0 0 22 32">
      <path fill="none" stroke="#fe6401" stroke-linecap="round" stroke-linejoin="round" stroke-width="1.774" d="M3.549 23.492a.889.889 0 0 1-.693-1.446l8.783-9.049a.443.443 0 0 1 .763.408l-1.703 5.341a.887.887 0 0 0 .834 1.197h6.21a.889.889 0 0 1 .693 1.446l-8.783 9.049a.443.443 0 0 1-.763-.408l1.703-5.341a.89.89 0 0 0-.422-1.098.886.886 0 0 0-.412-.1h-6.21z" style="stroke:var(--color1, #fe6401)"/>
    </symbol>
    <symbol id="icon-lock" viewBox="0 0 32 32">
      <path fill="none" stroke="#fff" stroke-linecap="round" stroke-linejoin="round" stroke-width="2.667" d="M25.333 14.666H6.666a2.667 2.667 0 0 0-2.667 2.667v9.333a2.667 2.667 0 0 0 2.667 2.667h18.667A2.667 2.667 0 0 0 28 26.666v-9.333a2.667 2.667 0 0 0-2.667-2.667z" style="stroke:var(--color3, #fff)"/>
      <path fill="none" stroke="#fff" stroke-linecap="round" stroke-linejoin="round" stroke-width="2.667" d="M9.333 14.666V9.333a6.67 6.67 0 0 1 11.381-4.714 6.668 6.668 0 0 1 1.953 4.714v5.333" style="stroke:var(--color3, #fff)"/>
    </symbol>
    <symbol id="icon-logo" viewBox="0 0 418 32">
      <path fill="#fe6401" d="m32.737 12.308-8.558 17.096h-4.211l-8.512-17.096V32H0v-1.924h4.392V.717h9.554l8.15 17.186L30.292.717h9.509v29.359h4.392V32H32.737V12.308z" style="fill:var(--color1, #fe6401)"/>
      <path fill="#fe6401" d="M47.593 30.076V.717h22.821v6.221H54.657v6.445h14.172v5.952H54.657v6.489h16.255v4.252h4.392V32H43.201v-1.924h4.392z" style="fill:var(--color1, #fe6401)"/>
      <path fill="#fe6401" d="M107.285 30.076V32H73.326v-1.924h9.826c-2.415-1.402-4.317-3.297-5.705-5.684-1.358-2.417-2.038-5.147-2.038-8.19 0-4.595 1.6-8.444 4.8-11.547C83.439 1.552 87.318 0 91.846 0c4.558 0 8.512 1.477 11.863 4.431l-3.668 5.236c-1.419-1.223-2.732-2.059-3.939-2.506-1.177-.477-2.46-.716-3.849-.716-2.686 0-4.951.91-6.792 2.73-1.841 1.79-2.762 4.162-2.762 7.116s.875 5.326 2.626 7.116c1.781 1.76 3.894 2.641 6.339 2.641s4.483-.462 6.113-1.388v-8.593h7.109v11.099c-1.026 1.134-2.249 2.103-3.668 2.909h6.067z" style="fill:var(--color1, #fe6401)"/>
      <path fill="#fe6401" d="M145.636 30.076V32h-11.908l-2.943-6.758h-13.267L114.575 32h-11.908v-1.924h5.207L120.733.717h6.837l12.814 29.359h5.252zm-21.462-20.051-3.985 9.085h7.924l-3.939-9.085z" style="fill:var(--color1, #fe6401)"/>
      <path fill="#fe6401" d="M175.028 30.076V32h-34.005v-1.924h9.011c-3.713-2.447-5.57-6.4-5.57-11.86V.717h7.064v17.276c0 2.506.589 4.491 1.766 5.953 1.177 1.432 2.762 2.148 4.754 2.148s3.562-.716 4.709-2.148c1.177-1.462 1.766-3.446 1.766-5.953V.717h7.063v17.499c0 5.46-1.841 9.413-5.524 11.86h8.965z" style="fill:var(--color1, #fe6401)"/>
      <path fill="#fe6401" d="M178.921 30.076V.717h6.611l15.531 20.14V.717h7.063v29.359h4.392V32h-11.456l-15.078-19.603V32h-11.456v-1.924h4.392z" style="fill:var(--color1, #fe6401)"/>
      <path fill="#fe6401" d="M226.889 30.076V32h-14.851v-1.924h3.894V.717h7.063v29.359h3.893zM254.423 30.076V32h-27.529v-1.924h10.234V6.759h-8.966V.717h24.994v6.042h-8.964v23.317h10.231zM288.401 30.076V32h-33.958v-1.924h9.826c-2.415-1.402-4.318-3.297-5.707-5.684-1.357-2.417-2.037-5.147-2.037-8.19 0-4.595 1.6-8.444 4.8-11.547C264.555 1.552 268.433 0 272.962 0c4.557 0 8.512 1.477 11.863 4.431l-3.669 5.236c-1.419-1.223-2.731-2.059-3.938-2.506-1.178-.477-2.46-.716-3.849-.716-2.688 0-4.951.91-6.793 2.73-1.841 1.79-2.763 4.162-2.763 7.116s.877 5.326 2.626 7.116c1.781 1.76 3.895 2.641 6.34 2.641s4.482-.462 6.112-1.388v-8.593h7.108v11.099c-1.026 1.134-2.249 2.103-3.667 2.909h6.067zM325.803 30.076V32h-37.402v-1.924h10.097a15.753 15.753 0 0 1-5.886-5.773c-1.419-2.447-2.127-5.162-2.127-8.145 0-4.595 1.6-8.429 4.8-11.502 3.198-3.103 7.138-4.655 11.817-4.655s8.619 1.552 11.819 4.655c3.2 3.073 4.8 6.907 4.8 11.502 0 2.984-.725 5.699-2.174 8.145s-3.396 4.371-5.841 5.773h10.097zm-9.282-13.875c0-2.805-.907-5.192-2.718-7.161s-4.045-2.954-6.701-2.954c-2.626 0-4.845.985-6.656 2.954s-2.716 4.356-2.716 7.161c0 2.775.905 5.147 2.716 7.116 1.811 1.939 4.03 2.909 6.656 2.909 2.656 0 4.89-.97 6.701-2.909 1.811-1.969 2.718-4.341 2.718-7.116zM325.811 32v-1.924h3.441c-.604-.686-.907-1.552-.907-2.596 0-1.074.378-1.984 1.133-2.73.785-.776 1.734-1.164 2.852-1.164 1.116 0 2.052.388 2.807 1.164.785.746 1.178 1.641 1.178 2.685s-.318 1.924-.951 2.641h3.486V32h-13.039zM362.944 30.503V32h-24.09v-1.497h3.415V7.668h8.452c3.733 0 6.458.708 8.171 2.123 1.715 1.416 2.571 3.597 2.571 6.544s-.879 5.105-2.641 6.475c-1.737 1.369-4.414 2.054-8.03 2.054h-4.367v5.639h16.518zm-11.693-9.364c2.3 0 3.861-.429 4.685-1.288.845-.882 1.267-2.158 1.267-3.829 0-1.694-.529-2.889-1.585-3.585s-2.711-1.044-4.966-1.044h-4.226v9.747h4.826z" style="fill:var(--color1, #fe6401)"/>
      <path fill="#fe6401" d="M389.449 30.503V32h-7.607l-5.882-8.18h-5.459V32h-7.571v-1.497h3.415V7.668h9.156c3.757 0 6.445.627 8.066 1.88 1.619 1.253 2.43 3.261 2.43 6.022 0 4.015-1.773 6.544-5.318 7.589l5.353 7.345h3.418zm-13.771-10.408c2.347 0 3.945-.36 4.789-1.079s1.267-1.868 1.267-3.446c0-1.601-.433-2.692-1.303-3.272-.868-.603-2.417-.905-4.649-.905H370.5v8.702h5.178z" style="fill:var(--color1, #fe6401)"/>
      <path fill="#fe6401" d="M418.133 30.503V32H388.55v-1.497h8.066a12.245 12.245 0 0 1-4.578-4.49c-1.105-1.903-1.655-4.026-1.655-6.37 0-3.574 1.244-6.556 3.731-8.946 2.49-2.413 5.566-3.62 9.229-3.62 3.661 0 6.737 1.207 9.227 3.62 2.487 2.39 3.733 5.372 3.733 8.946 0 2.321-.565 4.444-1.692 6.37a11.667 11.667 0 0 1-4.542 4.49h8.064zm-8.627-17.091c-1.668-1.717-3.723-2.576-6.163-2.576-2.443 0-4.508.859-6.199 2.576-1.666 1.717-2.5 3.806-2.5 6.266 0 2.437.834 4.514 2.5 6.231 1.692 1.717 3.757 2.576 6.199 2.576 2.441 0 4.495-.859 6.163-2.576 1.69-1.717 2.534-3.794 2.534-6.231 0-2.46-.845-4.548-2.534-6.266z" style="fill:var(--color1, #fe6401)"/>
    </symbol>
    <symbol id="icon-menu" viewBox="0 0 41 32">
      <path fill="#fe6401" d="M0 0h41.143v4.571H0V0zM0 13.714h41.143v4.571H0v-4.571zM0 27.429h41.143V32H0v-4.571z" style="fill:var(--color1, #fe6401)"/>
    </symbol>
    <symbol id="icon-music" viewBox="0 0 32 32">
      <path fill="none" stroke="#f06e42" stroke-linecap="round" stroke-linejoin="round" stroke-width="2.667" d="M12 24V6.667L28 4v17.333" style="stroke:var(--color2, #f06e42)"/>
      <path fill="none" stroke="#f06e42" stroke-linecap="round" stroke-linejoin="round" stroke-width="2.667" d="M8 28a4 4 0 1 0 0-8 4 4 0 0 0 0 8zM24 25.333a4 4 0 1 0 0-8 4 4 0 0 0 0 8z" style="stroke:var(--color2, #f06e42)"/>
    </symbol>
    <symbol id="icon-open-lock" viewBox="0 0 32 32">
      <path fill="none" stroke="#fff" stroke-linecap="round" stroke-linejoin="round" stroke-width="2.667" d="M25.333 14.666H6.666a2.667 2.667 0 0 0-2.667 2.667v9.333a2.667 2.667 0 0 0 2.667 2.667h18.667A2.667 2.667 0 0 0 28 26.666v-9.333a2.667 2.667 0 0 0-2.667-2.667z" style="stroke:var(--color3, #fff)"/>
      <path fill="none" stroke="#fff" stroke-linecap="round" stroke-linejoin="round" stroke-width="2.667" d="M9.333 14.667V9.334a6.666 6.666 0 0 1 13.199-1.333" style="stroke:var(--color3, #fff)"/>
    </symbol>
    <symbol id="icon-server" viewBox="0 0 32 32">
      <path fill="none" stroke="#fe6401" stroke-linecap="round" stroke-linejoin="round" stroke-width="2.667" d="M29.333 16H2.666M7.267 6.813 2.667 16v8a2.67 2.67 0 0 0 2.667 2.667h21.333A2.67 2.67 0 0 0 29.334 24v-8l-4.6-9.187a2.673 2.673 0 0 0-2.387-1.48H9.654a2.67 2.67 0 0 0-2.387 1.48zM8 21.333h.013M13.333 21.333h.013" style="stroke:var(--color1, #fe6401)"/>
    </symbol>
    <symbol id="icon-shield" viewBox="0 0 32 32">
      <path fill="none" stroke="#f06e42" stroke-linecap="round" stroke-linejoin="round" stroke-width="2.667" d="M26.667 17.333c0 6.667-4.667 10-10.213 11.933a1.335 1.335 0 0 1-.893-.013C10.001 27.333 5.334 24 5.334 17.333V8a1.335 1.335 0 0 1 1.334-1.334c2.667 0 6-1.6 8.32-3.627a1.563 1.563 0 0 1 2.026 0c2.333 2.04 5.653 3.627 8.32 3.627A1.33 1.33 0 0 1 26.667 8v9.333z" style="stroke:var(--color2, #f06e42)"/>
    </symbol>
    <symbol id="icon-students" viewBox="0 0 32 32">
      <path fill="none" stroke="#f06e42" stroke-linecap="round" stroke-linejoin="round" stroke-width="2.667" d="M21.333 28v-2.667A5.332 5.332 0 0 0 16 20H8a5.332 5.332 0 0 0-5.333 5.333V28M12 14.667a5.333 5.333 0 1 0 0-10.666 5.333 5.333 0 0 0 0 10.666zM29.333 28v-2.667a5.334 5.334 0 0 0-4-5.16M21.333 4.173a5.337 5.337 0 0 1 4.01 5.166 5.333 5.333 0 0 1-4.01 5.166" style="stroke:var(--color2, #f06e42)"/>
    </symbol>
    <symbol id="icon-wrench" viewBox="0 0 32 32">
      <path fill="none" stroke="#fe6401" stroke-linecap="round" stroke-linejoin="round" stroke-width="2.667" d="M19.6 8.4a1.333 1.333 0 0 0 0 1.866l2.133 2.133a1.333 1.333 0 0 0 1.866 0l5.027-5.027a7.997 7.997 0 0 1-5.855 11.168 7.998 7.998 0 0 1-4.732-.582l-9.213 9.213a2.83 2.83 0 0 1-4-4l9.213-9.213a7.997 7.997 0 0 1 5.855-11.169 7.998 7.998 0 0 1 4.732.582l-5.027 5.027z" style="stroke:var(--color1, #fe6401)"/>
    </symbol>
  </defs>
</svg>
